Coordinates
version=1
nRows=9
nColumns=38
inDegrees=yes

Units are S.I. units (second, meters, Newtons, ...)
Angles are in degrees.

endheader
time	pelvis_tilt	pelvis_list	pelvis_rotation	pelvis_tx	pelvis_ty	pelvis_tz	hip_flexion_r	hip_adduction_r	hip_rotation_r	knee_angle_r	ankle_angle_r	subtalar_angle_r	mtp_angle_r	hip_flexion_l	hip_adduction_l	hip_rotation_l	knee_angle_l	ankle_angle_l	subtalar_angle_l	mtp_angle_l	lumbar_extension	lumbar_bending	lumbar_rotation	arm_flex_r	arm_add_r	arm_rot_r	elbow_flex_r	pro_sup_r	wrist_flex_r	wrist_dev_r	arm_flex_l	arm_add_l	arm_rot_l	elbow_flex_l	pro_sup_l	wrist_flex_l	wrist_dev_l
      6.91000000	      2.67216500	     -7.10050051	     84.93039928	     -0.18563456	      1.02323224	     -0.28206276	     27.87730756	      9.41574861	      3.44159261	    -51.31904227	     23.67626013	      0.00000000	      0.00000000	     21.73049245	     -7.62252784	     -7.39732685	   -111.63291992	    -24.93746998	      0.00000000	      0.00000000	    -18.74601171	      4.41948543	      2.87160230	      0.00000000	      0.00000000	      0.00000000	     90.00000000	     90.00000000	      0.00000000	      0.00000000	      0.00000000	      0.00000000	      0.00000000	     90.00000000	     90.00000000	      0.00000000	      0.00000000
      6.91500000	      2.93295644	     -7.16883272	     84.87231010	     -0.18531589	      1.02245798	     -0.28057793	     26.88410723	      9.64977930	      3.46774677	    -51.18617992	     24.44918397	      0.00000000	      0.00000000	     23.35116356	     -8.09172876	     -7.13982384	   -112.37100742	    -24.26649172	      0.00000000	      0.00000000	    -18.88044181	      4.55388958	      3.92266695	      0.00000000	      0.00000000	      0.00000000	     90.00000000	     90.00000000	      0.00000000	      0.00000000	      0.00000000	      0.00000000	      0.00000000	     90.00000000	     90.00000000	      0.00000000	      0.00000000
      6.92000000	      3.15582233	     -7.25457055	     84.79085262	     -0.18496645	      1.02199161	     -0.27917952	     25.85764008	      9.84874165	      3.55137604	    -50.95401604	     25.13089602	      0.00000000	      0.00000000	     24.96851656	     -8.51057276	     -6.89278141	   -112.95238818	    -23.50805908	      0.00000000	      0.00000000	    -18.97548828	      4.62628131	      4.99760740	      0.00000000	      0.00000000	      0.00000000	     90.00000000	     90.00000000	      0.00000000	      0.00000000	      0.00000000	      0.00000000	      0.00000000	     90.00000000	     90.00000000	      0.00000000	      0.00000000
      6.92500000	      3.33398396	     -7.35976806	     84.68085985	     -0.18456648	      1.02181843	     -0.27785551	     24.79992042	     10.00648967	      3.70049957	    -50.61920409	     25.71677434	      0.00000000	      0.00000000	     26.57982733	     -8.87661935	     -6.66558561	   -113.37801343	    -22.66419733	      0.00000000	      0.00000000	    -19.02401003	      4.62976292	      6.09426092	      0.00000000	      0.00000000	      0.00000000	     90.00000000	     90.00000000	      0.00000000	      0.00000000	      0.00000000	      0.00000000	      0.00000000	     90.00000000	     90.00000000	      0.00000000	      0.00000000
      6.93000000	      3.46204266	     -7.48607204	     84.53957661	     -0.18409956	      1.02193837	     -0.27659737	     23.71099519	     10.11600935	      3.91937069	    -50.17547528	     26.20101909	      0.00000000	      0.00000000	     28.18129197	     -9.18768570	     -6.46568778	   -113.64741724	    -21.73890372	      0.00000000	      0.00000000	    -19.01914092	      4.55963276	      7.20884150	      0.00000000	      0.00000000	      0.00000000	     90.00000000	     90.00000000	      0.00000000	      0.00000000	      0.00000000	      0.00000000	      0.00000000	     90.00000000	     90.00000000	      0.00000000	      0.00000000
      6.93500000	      3.53599234	     -7.63451196	     84.36720224	     -0.18355802	      1.02236187	     -0.27540646	     22.59004426	     10.17037155	      4.20846371	    -49.61631245	     26.57694738	      0.00000000	      0.00000000	     29.76770373	     -9.44161218	     -6.29825091	   -113.75883373	    -20.73788016	      0.00000000	      0.00000000	    -18.95504207	      4.41370044	      8.33570388	      0.00000000	      0.00000000	      0.00000000	     90.00000000	     90.00000000	      0.00000000	      0.00000000	      0.00000000	      0.00000000	      0.00000000	     90.00000000	     90.00000000	      0.00000000	      0.00000000
      6.94000000	      3.55314340	     -7.80524884	     84.16697615	     -0.18294567	      1.02310374	     -0.27429813	     21.43640661	     10.16357176	      4.56460496	    -48.93708832	     26.83731553	      0.00000000	      0.00000000	     31.33242652	     -9.63612491	     -6.16599087	   -113.70965473	    -19.66840143	      0.00000000	      0.00000000	    -18.82758204	      4.19238468	      9.46724923	      0.00000000	      0.00000000	      0.00000000	     90.00000000	     90.00000000	      0.00000000	      0.00000000	      0.00000000	      0.00000000	      0.00000000	     90.00000000	     90.00000000	      0.00000000	      0.00000000
      6.94500000	      3.51213442	     -7.99739011	     83.94486875	     -0.18227653	      1.02417659	     -0.27330030	     20.25035869	     10.09106709	      4.98121577	    -48.13645902	     26.97467059	      0.00000000	      0.00000000	     32.86765856	     -9.76880870	     -6.06921301	   -113.49707531	    -18.53935719	      0.00000000	      0.00000000	    -18.63484445	      3.89860272	     10.59399420	      0.00000000	      0.00000000	      0.00000000	     90.00000000	     90.00000000	      0.00000000	      0.00000000	      0.00000000	      0.00000000	      0.00000000	     90.00000000	     90.00000000	      0.00000000	      0.00000000
      6.95000000	      3.41306071	     -8.20896337	     83.70900272	     -0.18157061	      1.02558656	     -0.27244731	     19.03351477	      9.94996300	      5.44863689	    -47.21698124	     26.98170887	      0.00000000	      0.00000000	     34.36493633	     -9.83719801	     -6.00603119	   -113.11877803	    -17.36145561	      0.00000000	      0.00000000	    -18.37738791	      3.53748776	     11.70480546	      0.00000000	      0.00000000	      0.00000000	     90.00000000	     90.00000000	      0.00000000	      0.00000000	      0.00000000	      0.00000000	      0.00000000	     90.00000000	     90.00000000	      0.00000000	      0.00000000
